<svg xmlns="http://www.w3.org/2000/svg" xmlns:xlink="http://www.w3.org/1999/xlink" viewBox="0 0 251.23 251.23"><defs fill="#2c6fff"><style>.cls-1{fill:url(#linear-gradient);}.cls-2{fill:none;stroke:#2c6fff;stroke-linecap:round;stroke-linejoin:round;stroke-width:15px;}.cls-3{fill:#2c6fff;}</style><linearGradient id="linear-gradient" x1="125.62" y1="251.23" x2="125.62" gradientUnits="userSpaceOnUse" fill="#2c6fff"><stop offset="0.27" stop-color="#ffffff" fill="#2c6fff"/><stop offset="1" stop-color="#ffffff" fill="#2c6fff"/></linearGradient></defs><title>Asset 234</title><g id="Layer_2" data-name="Layer 2"><g id="Layer_52" data-name="Layer 52"><rect class="cls-1" width="251.23" height="251.23" rx="125.62" fill="#2c6fff"/><polyline class="cls-2" points="163.38 189.26 199.53 199.69 188.99 163.15" fill="#2c6fff"/><path class="cls-2" d="M125.42,199.54A73,73,0,0,0,163,189.19" fill="#2c6fff"/><path class="cls-2" d="M189.2,162.43a73.35,73.35,0,1,0-125.56,3.32" fill="#2c6fff"/><path class="cls-3" d="M142.26,143c-28.7,39.5-29.39,31.15-35.72,26.56s-15.88-3.7,12.81-43.2,67.41-80.52,73.73-75.92S171,103.49,142.26,143Z" fill="#2c6fff"/><path class="cls-3" d="M107.38,198.4c-10.55,19-51,2.39-50.51,2,6.23-4.86,12.33-6.25,15.61-15,4-10.77,15.08-16.58,24.72-13S113.82,186.8,107.38,198.4Z" fill="#2c6fff"/><circle class="cls-3" cx="87.97" cy="101.9" r="10.86" fill="#2c6fff"/><circle class="cls-3" cx="80.43" cy="140.73" r="10.86" fill="#2c6fff"/><circle class="cls-3" cx="120.74" cy="81.35" r="10.86" fill="#2c6fff"/></g></g></svg>