<?xml version="1.0" encoding="UTF-8" standalone="no"?>
<!DOCTYPE svg PUBLIC "-//W3C//DTD SVG 1.1//EN" "http://www.w3.org/Graphics/SVG/1.1/DTD/svg11.dtd">
<svg width="61.92" height="61.92" viewBox="0.00 0.00 516.00 516.00" xmlns="http://www.w3.org/2000/svg" xmlns:xlink="http://www.w3.org/1999/xlink">
<g stroke-linecap="round" id="Layer_2">
<path d="M156.33,155.52 C153.26,156.22 144.52,158.23 142.25,158.85 C135.55,160.69 124.23,165.47 116.38,169.89 C108.96,174.12 101.25,179.48 92.21,186.16 C87.17,189.94 75.94,198.35 72.40,201.46 C66.54,206.65 59.75,214.80 55.79,220.70 C51.43,227.31 45.69,237.87 43.10,243.73 C40.05,250.70 35.50,264.07 33.91,270.61 C32.07,278.22 29.56,293.73 29.03,300.72 C28.44,308.80 28.51,325.14 28.72,329.16 C28.94,333.24 30.43,347.79 31.77,355.66 C33.00,362.23 36.99,377.47 38.29,381.47 C41.23,390.10 44.63,398.79 47.77,405.71 C50.13,410.82 58.52,425.91 61.99,431.01 C64.46,434.60 78.76,453.42 82.11,456.47 C83.35,457.59 92.23,463.19 93.37,463.70 C97.81,465.66 111.83,467.40 113.23,467.58" fill="none" stroke="rgb(0, 0, 0)" stroke-width="17.00" stroke-opacity="1.00" stroke-linejoin="round"/>
<path d="M60.67,427.17 C60.21,428.69 62.66,432.77 65.85,437.19 C71.51,444.92 79.79,454.24 85.38,457.99 C88.55,460.08 95.74,463.50 99.35,464.63 C102.84,465.71 108.88,466.69 112.33,466.90 C115.29,467.05 122.69,466.47 126.49,465.61 C129.95,464.79 137.00,461.81 138.98,460.61 C141.48,459.08 148.63,453.07 150.11,451.54 C152.73,448.80 155.12,444.63 156.38,441.96" fill="none" stroke="rgb(0, 0, 0)" stroke-width="17.00" stroke-opacity="1.00" stroke-linejoin="round"/>
<path d="M158.27,444.61 C158.04,446.09 160.78,450.49 161.82,451.53 C164.09,453.77 180.56,465.66 183.89,467.42 C189.71,470.47 201.20,474.88 207.27,476.04 C213.51,477.21 227.48,477.10 234.28,475.87 C237.34,475.30 244.41,473.33 247.50,472.10 C251.00,470.69 255.95,467.92 258.69,465.84 C262.79,462.69 271.76,451.93 274.70,446.40 C277.50,440.99 277.64,434.64 277.40,432.90" fill="none" stroke="rgb(0, 0, 0)" stroke-width="17.00" stroke-opacity="1.00" stroke-linejoin="round"/>
<path d="M279.19,435.09 C279.87,437.29 282.01,441.56 283.55,443.95 C285.39,446.74 290.26,452.51 293.02,455.04 C297.90,459.47 307.84,465.10 313.31,466.74 C318.90,468.38 330.34,469.13 336.30,468.10 C338.80,467.66 344.52,466.01 347.05,464.94 C350.10,463.62 355.71,460.32 358.39,458.03 C360.46,456.25 365.75,450.44 367.46,447.91 C371.50,441.86 373.80,435.30 374.02,433.05" fill="none" stroke="rgb(0, 0, 0)" stroke-width="17.00" stroke-opacity="1.00" stroke-linejoin="round"/>
<path d="M298.82,198.75 C298.68,198.54 298.25,197.96 298.46,198.09 C299.78,198.98 314.30,213.85 318.25,219.41 C322.57,225.55 327.80,234.03 330.81,240.60 C333.24,245.95 337.42,258.26 339.08,265.12 C340.27,270.11 342.62,284.25 343.24,291.04 C343.78,297.20 343.77,310.01 343.10,317.18 C342.60,322.44 340.41,335.37 338.49,343.12 C336.91,349.34 333.82,357.74 329.17,368.56 C326.85,373.76 324.12,379.50 322.62,382.29 C320.79,385.65 317.65,390.25 315.17,393.20" fill="none" stroke="rgb(0, 0, 0)" stroke-width="17.00" stroke-opacity="1.00" stroke-linejoin="round"/>
<path d="M324.80,389.43 C324.80,389.43 324.42,389.72 324.42,389.72 C324.36,390.86 326.12,392.84 330.01,396.79 C338.61,405.46 345.79,412.33 351.41,416.65 C355.34,419.64 365.29,425.67 367.68,427.10" fill="none" stroke="rgb(0, 0, 0)" stroke-width="17.00" stroke-opacity="1.00" stroke-linejoin="round"/>
<path d="M369.38,429.57 C369.38,429.57 373.36,432.03 373.36,432.03" fill="none" stroke="rgb(0, 0, 0)" stroke-width="17.00" stroke-opacity="1.00" stroke-linejoin="round"/>
<path d="M97.27,183.25 C98.05,181.75 109.48,175.22 117.41,171.22 C125.82,167.16 133.92,163.79 142.26,160.56 C151.57,157.18 160.27,154.84 168.11,154.20 C175.19,153.65 188.10,154.23 194.72,155.13 C203.07,156.32 212.83,158.25 222.49,160.59 C226.75,161.67 242.23,166.47 249.13,169.08 C258.24,172.72 266.50,176.52 275.05,181.50 C285.00,187.50 294.48,193.85 298.15,197.41 C299.65,198.86 302.05,201.40 303.41,202.93" fill="none" stroke="rgb(0, 0, 0)" stroke-width="17.00" stroke-opacity="1.00" stroke-linejoin="round"/>
<path d="M50.45,228.73 C51.76,225.67 59.79,214.72 63.67,210.47 C67.81,205.95 77.79,196.62 83.27,192.13 C88.90,187.59 100.41,179.26 106.48,175.59 C113.01,171.65 127.00,164.84 131.63,163.02 C135.18,161.63 152.15,155.75 156.32,155.43 C158.50,155.28 164.65,154.42 166.28,154.18" fill="none" stroke="rgb(0, 0, 0)" stroke-width="17.00" stroke-opacity="1.00" stroke-linejoin="round"/>
<path d="M102.85,466.80 C102.85,466.80 106.64,467.34 106.64,467.34" fill="none" stroke="rgb(0, 0, 0)" stroke-width="17.00" stroke-opacity="1.00" stroke-linejoin="round"/>
<path d="M317.98,389.71 C317.72,390.84 314.92,394.84 312.39,397.16 C311.35,398.10 305.29,403.04 302.80,404.85" fill="none" stroke="rgb(0, 0, 0)" stroke-width="17.00" stroke-opacity="1.00" stroke-linejoin="round"/>
<path d="M369.03,428.31 C369.03,428.31 372.76,431.81 372.76,431.81" fill="none" stroke="rgb(0, 0, 0)" stroke-width="17.00" stroke-opacity="1.00" stroke-linejoin="round"/>
<path d="M105.14,175.56 C104.72,175.29 103.70,173.88 102.97,172.40 C101.90,170.21 100.43,163.62 100.10,159.52 C99.61,152.90 100.75,139.19 102.77,128.81 C104.03,122.54 108.32,109.99 109.77,106.80 C112.22,101.44 118.36,91.11 122.03,86.29 C125.84,81.33 134.30,72.73 139.16,68.86 C144.00,65.02 154.85,58.31 160.86,55.43 C166.72,52.63 179.11,47.94 185.12,46.24 C191.31,44.50 203.63,42.28 209.72,41.81 C215.74,41.37 226.90,41.76 233.40,42.45 C237.61,42.91 255.28,46.73 261.24,48.82 C275.05,53.93 285.75,60.59 286.48,61.10" fill="none" stroke="rgb(0, 0, 0)" stroke-width="17.00" stroke-opacity="1.00" stroke-linejoin="round"/>
<path d="M285.10,61.32 C285.10,61.32 284.79,60.97 284.79,60.97 C283.68,61.73 283.08,62.34 282.42,63.48 C277.92,71.08 274.32,79.00 272.85,84.35 C272.04,87.32 271.00,94.17 270.87,97.27 C270.75,100.97 271.37,108.02 272.12,111.46 C273.83,119.15 277.79,128.83 281.74,134.20 C283.65,136.77 287.96,141.33 290.32,143.29 C292.73,145.26 297.98,148.51 300.95,149.85 C303.89,151.15 310.43,153.25 313.79,153.95 C317.24,154.64 324.21,155.25 327.71,155.18 C334.52,155.01 348.11,151.69 354.80,148.88 C358.12,147.46 364.06,144.23 366.71,142.32 C369.43,140.34 373.99,135.89 375.81,133.37 C377.59,130.86 380.33,125.14 381.34,122.00 C382.31,118.93 383.50,112.46 383.73,109.12 C383.94,105.75 383.60,99.09 383.03,95.80 C381.92,89.58 376.79,76.40 373.47,71.15 C370.05,65.84 361.57,57.12 356.65,54.08 C351.76,51.09 340.98,47.60 335.05,46.99 C329.55,46.45 320.69,47.14 312.09,48.52 C307.59,49.24 302.50,50.51 299.68,51.65 C298.67,52.06 285.09,59.71 284.47,60.56 C283.92,61.34 282.29,65.08 282.12,65.14 C281.77,65.28 281.45,64.34 281.14,64.56 C280.56,64.97 278.73,70.56 278.43,71.51" fill="none" stroke="rgb(0, 0, 0)" stroke-width="17.00" stroke-opacity="1.00" stroke-linejoin="round"/>
<path d="M444.33,291.08 C443.09,290.86 440.73,290.41 440.13,290.35 C436.10,289.98 423.30,291.71 417.75,293.16 C411.87,294.71 401.90,299.63 397.49,302.94 C393.34,306.09 385.66,314.36 382.62,318.90 C379.50,323.59 374.91,334.54 373.86,340.05 C373.31,343.00 372.94,349.11 373.11,352.25 C373.31,355.47 374.49,361.74 375.53,364.83 C376.59,367.92 379.63,374.07 381.57,377.07 C383.54,380.08 388.23,385.79 390.89,388.34 C396.19,393.35 407.54,399.73 412.80,401.80 C418.22,403.91 429.45,406.49 435.04,406.90 C440.48,407.29 452.99,406.27 460.11,403.74 C463.78,402.41 470.62,398.83 473.68,396.63 C476.75,394.39 482.06,389.14 484.28,386.15 C486.44,383.19 489.82,376.73 491.10,373.22 C492.31,369.86 494.06,362.61 494.56,358.96 C495.06,355.25 495.24,347.93 494.92,344.24 C494.58,340.63 493.17,333.45 492.12,330.01 C491.07,326.62 488.31,320.16 486.67,317.22 C484.99,314.24 481.16,309.04 478.88,306.66 C476.81,304.53 470.08,299.08 469.42,298.62 C465.10,295.67 451.76,291.50 446.11,290.21 C441.91,289.31 439.84,289.74 437.60,290.73" fill="none" stroke="rgb(0, 0, 0)" stroke-width="17.00" stroke-opacity="1.00" stroke-linejoin="round"/>
<path d="M164.10,218.89 C161.43,219.31 160.08,219.76 158.53,220.78 C158.15,221.04 152.84,224.27 150.79,225.80 C146.29,229.18 137.58,238.04 132.98,244.14 C129.43,248.88 123.02,259.62 120.64,264.74 C118.16,270.11 114.74,280.18 113.63,285.55 C113.01,288.64 112.35,295.38 112.50,299.95 C112.67,303.92 114.02,310.41 115.38,313.43 C116.75,316.39 120.63,321.26 122.95,322.91 C125.25,324.48 130.90,326.41 133.91,326.70 C137.06,326.96 142.90,325.67 145.96,324.08 C151.34,321.20 159.46,312.86 161.88,309.59 C164.49,306.01 170.47,294.90 172.54,289.93 C175.03,283.91 177.97,272.99 178.57,267.43 C179.29,260.44 178.20,246.39 176.39,239.44 C176.11,238.39 173.69,230.66 172.74,227.73 C171.78,224.90 170.67,222.21 169.92,221.18 C169.22,220.25 167.43,218.57 166.18,217.52" fill="none" stroke="rgb(0, 0, 0)" stroke-width="15.00" stroke-opacity="1.00" stroke-linejoin="round"/>
<path d="M262.50,241.64 C262.22,241.75 262.01,241.85 261.87,241.94 C259.77,243.40 246.37,258.52 243.71,262.21 C240.11,267.26 234.09,278.00 231.93,282.89 C229.44,288.54 225.43,302.29 224.64,308.96 C224.25,312.46 224.40,319.03 224.88,322.24 C225.39,325.55 226.98,331.00 228.53,334.18 C229.92,336.97 233.36,341.16 235.52,342.73 C237.75,344.30 243.04,346.11 245.95,346.32 C248.86,346.49 254.42,345.36 257.26,344.03 C260.07,342.68 265.13,338.76 267.26,336.27 C270.63,332.23 276.92,318.49 279.00,311.56 C280.61,306.15 282.65,294.96 283.07,289.41 C283.54,282.69 282.42,269.85 280.58,262.99 C279.53,259.14 274.32,245.46 271.42,242.31 C270.93,241.79 269.36,240.56 268.91,240.40 C268.23,240.18 267.69,240.10 267.27,240.16 C267.03,240.20 266.31,240.54 264.87,240.20" fill="none" stroke="rgb(0, 0, 0)" stroke-width="15.00" stroke-opacity="1.00" stroke-linejoin="round"/>
<path d="M264.35,173.06 C267.36,164.91 271.51,156.76 275.01,151.99 C276.34,150.19 282.63,142.50 283.18,141.82" fill="none" stroke="rgb(0, 0, 0)" stroke-width="17.00" stroke-opacity="1.00" stroke-linejoin="round"/>
<path d="M381.92,126.74 C386.77,129.47 397.38,135.53 401.36,138.15 C406.46,141.53 415.35,149.16 419.92,154.18 C424.04,158.71 431.66,169.10 434.97,174.24 C438.04,179.02 443.78,190.15 446.12,197.22 C448.37,204.11 450.45,216.97 450.80,224.16 C451.04,229.81 450.49,243.02 449.61,251.93 C447.17,273.99 444.15,288.36 444.09,288.64" fill="none" stroke="rgb(0, 0, 0)" stroke-width="17.00" stroke-opacity="1.00" stroke-linejoin="round"/>
<path d="M133.23,250.85 C133.23,250.85 128.53,256.69 128.53,256.69" fill="none" stroke="rgb(0, 0, 0)" stroke-width="7.00" stroke-opacity="1.00" stroke-linejoin="round"/>
<path d="M131.50,253.00" fill="none" stroke="rgb(0, 0, 0)" stroke-width="7.00" stroke-opacity="1.00" stroke-linejoin="round"/>
<path d="M138.65,245.46 C138.64,245.47 142.80,240.83 144.57,239.61 C146.09,238.60 148.84,237.40 149.98,237.40 C151.27,237.44 153.70,239.07 154.56,240.56 C156.12,243.39 157.26,254.33 157.03,262.48 C156.81,269.55 152.42,292.63 150.28,299.60 C149.28,302.69 147.28,308.02 145.81,310.48 C143.43,314.45 138.50,318.23 136.16,318.92 C133.82,319.57 128.68,318.73 126.37,317.36 C123.84,315.83 119.49,310.12 118.13,306.09 C115.15,297.03 115.66,289.19 115.80,287.77" fill="none" stroke="rgb(0, 0, 0)" stroke-width="7.00" stroke-opacity="1.00" stroke-linejoin="round"/>
<path d="M117.68,304.23 C118.02,304.68 119.64,308.42 120.56,309.93 C121.49,311.46 123.89,314.10 124.84,314.68 C125.98,315.34 129.81,316.34 131.27,316.29 C132.70,316.21 137.32,314.46 138.99,313.53 C140.97,312.40 143.23,310.24 146.09,307.20 C148.13,304.93 151.13,300.58 153.12,296.80 C153.64,295.82 157.65,287.70 157.71,287.56" fill="none" stroke="rgb(0, 0, 0)" stroke-width="7.00" stroke-opacity="1.00" stroke-linejoin="round"/>
<path d="M142.10,240.44 C142.74,239.95 143.37,239.56 144.05,239.31 C146.76,238.35 149.96,238.16 151.30,238.57 C152.60,239.06 155.66,242.77 156.80,244.87 C158.94,248.98 161.21,260.32 161.44,267.18 C161.58,272.06 159.65,283.94 158.49,288.57 C157.64,291.95 152.35,304.54 149.73,309.75 C147.39,314.26 144.34,316.75 143.21,317.66 C142.38,318.32 141.42,319.12 141.37,319.18" fill="none" stroke="rgb(0, 0, 0)" stroke-width="7.00" stroke-opacity="1.00" stroke-linejoin="round"/>
<path d="M161.33,261.17 C161.33,261.17 161.15,260.19 161.15,260.19 C161.09,260.20 161.04,260.64 161.06,261.32 C161.17,265.06 160.36,277.57 159.52,281.07 C159.36,281.71 157.04,288.04 155.92,291.04 C154.86,293.84 153.58,297.82 153.56,297.83" fill="none" stroke="rgb(0, 0, 0)" stroke-width="7.00" stroke-opacity="1.00" stroke-linejoin="round"/>
<path d="M151.62,237.14 C152.39,235.98 154.34,233.97 157.95,230.74 C160.16,228.78 162.43,228.01 163.30,228.54 C164.10,229.08 165.08,231.25 165.22,233.30 C165.27,234.07 165.75,241.26 166.45,244.28 C166.66,245.13 168.98,253.30 168.99,253.20 C169.09,253.19 167.78,236.56 166.99,235.27 C166.65,234.74 165.07,233.70 164.36,233.55 C163.61,233.40 161.43,233.74 158.36,235.12 C157.18,235.65 156.57,236.58 156.67,237.06 C156.80,237.62 157.73,238.69 158.37,238.96 C158.81,239.20 159.72,238.84 159.68,239.11 C159.26,241.88 158.94,242.96 158.71,242.34 C158.42,241.18 158.80,240.04 159.86,238.90 C160.27,238.45 160.66,239.91 161.24,240.12 C161.51,240.21 162.05,239.90 162.85,239.20 C161.80,240.20 161.26,240.70 161.22,240.70 C160.67,240.72 161.83,239.35 162.35,239.51 C162.43,239.54 161.46,244.02 161.54,245.73 C161.64,247.29 164.35,261.31 164.40,267.46 C164.42,274.19 162.84,283.10 159.92,292.70 C157.67,299.86 153.81,312.10 151.91,316.04 C150.66,318.63 150.10,319.33 150.02,319.44" fill="none" stroke="rgb(0, 0, 0)" stroke-width="7.00" stroke-opacity="1.00" stroke-linejoin="round"/>
<path d="M164.90,246.70 C164.92,247.08 165.04,248.83 165.47,252.42 C166.36,260.62 166.28,269.19 165.69,274.01 C165.14,278.34 163.26,287.02 161.23,294.90 C159.03,302.78 155.89,312.74 155.32,314.01" fill="none" stroke="rgb(0, 0, 0)" stroke-width="7.00" stroke-opacity="1.00" stroke-linejoin="round"/>
<path d="M169.86,246.77 C169.83,246.88 169.76,251.27 169.84,253.17 C170.25,259.20 170.84,271.01 169.80,276.21 C169.13,279.44 167.13,285.70 165.34,289.58 C163.04,294.51 156.80,305.02 156.78,305.09" fill="none" stroke="rgb(0, 0, 0)" stroke-width="7.00" stroke-opacity="1.00" stroke-linejoin="round"/>
<path d="M251.03,259.30 C251.03,259.30 250.86,259.48 250.86,259.48 C252.23,257.85 254.29,256.01 255.39,255.38 C256.61,254.70 259.07,254.30 260.18,254.65 C261.33,255.05 263.75,257.22 264.64,258.78 C266.21,261.67 267.82,273.48 267.90,282.76 C267.93,287.31 267.01,297.57 266.02,303.67 C265.17,308.79 261.91,321.74 260.19,325.43 C258.76,328.41 254.61,332.94 252.18,334.15 C249.57,335.38 244.54,335.23 242.82,334.48 C241.24,333.73 238.84,331.89 237.56,330.45 C234.89,327.36 231.44,319.38 230.12,313.96 C229.66,312.03 228.89,307.72 228.69,306.62" fill="none" stroke="rgb(0, 0, 0)" stroke-width="7.00" stroke-opacity="1.00" stroke-linejoin="round"/>
<path d="M232.76,323.14 C232.87,323.57 236.76,327.00 237.31,327.42 C240.45,329.73 244.94,330.93 247.05,330.85 C249.05,330.73 252.78,329.47 254.57,328.08 C256.33,326.66 260.23,321.80 261.69,319.07 C264.02,314.65 267.78,302.29 268.81,295.69 C272.27,273.15 271.20,251.55 271.17,250.78" fill="none" stroke="rgb(0, 0, 0)" stroke-width="7.00" stroke-opacity="1.00" stroke-linejoin="round"/>
<path d="M259.49,252.31 C259.60,252.23 260.35,251.39 261.33,250.88 C262.73,250.15 264.42,249.89 265.44,250.38 C266.02,250.68 266.72,252.57 266.74,255.48 C266.78,257.46 270.45,263.82 270.67,264.21 C272.70,267.73 274.19,277.03 274.33,282.68 C274.45,287.91 272.54,307.79 272.13,309.94 C270.53,318.18 261.19,333.77 258.47,336.82 C255.84,339.68 251.55,340.38 250.50,340.50" fill="none" stroke="rgb(0, 0, 0)" stroke-width="7.00" stroke-opacity="1.00" stroke-linejoin="round"/>
<path d="M236.84,337.85 C236.84,337.85 234.10,335.95 234.10,335.95" fill="none" stroke="rgb(0, 0, 0)" stroke-width="7.00" stroke-opacity="1.00" stroke-linejoin="round"/>
<path d="M232.18,328.43 C232.28,329.02 235.78,332.78 238.81,334.54 C241.58,336.11 247.13,337.10 249.76,336.55 C251.84,336.09 256.06,334.05 257.26,332.89 C258.67,331.47 263.57,321.81 265.67,317.86 C266.66,315.90 271.03,304.20 272.18,298.17 C273.13,293.13 274.25,282.11 274.60,275.63" fill="none" stroke="rgb(0, 0, 0)" stroke-width="7.00" stroke-opacity="1.00" stroke-linejoin="round"/>
</g>
</svg>
